<!-- Generated by IcoMoon.io -->
<svg version="1.1" xmlns="http://www.w3.org/2000/svg" width="32" height="32" viewBox="0 0 32 32">
<title>user</title>
<path fill="#fff" d="M32 16c0 8.837-7.163 16-16 16s-16-7.163-16-16c0-8.837 7.163-16 16-16s16 7.163 16 16z"></path>
<path fill="#fff" stroke="#ff662d" stroke-linejoin="miter" stroke-linecap="butt" stroke-miterlimit="4" stroke-width="1.8824" d="M31.059 16c0 8.317-6.742 15.059-15.059 15.059s-15.059-6.742-15.059-15.059c0-8.317 6.742-15.059 15.059-15.059s15.059 6.742 15.059 15.059z"></path>
<path fill="#ff662d" d="M4.523 27.148c-2.799-2.881-4.523-6.813-4.523-11.148 0-8.837 7.163-16 16-16s16 7.163 16 16c0 4.334-1.724 8.266-4.523 11.148l-0.026-0.039c-2.077-3.116-5.554-4.976-9.298-4.976h-4.307c-3.744 0-7.221 1.86-9.298 4.976l-0.026 0.039zM16 6.588c-3.832 0-6.949 3.117-6.949 6.949s3.117 6.949 6.948 6.949c3.832 0 6.949-3.117 6.949-6.949s-3.117-6.949-6.949-6.949z"></path>
</svg>
